<svg viewBox="0 0 1920 1080">
    <path d="M1407.43 713.03l118.94 0 0 -249.2c2.06,2.38 4.13,4.68 6.27,7.9 2.78,4.17 3.43,6.1 6.04,10.95l56.85 101.73c27.91,46.75 1.03,38 106.42,38 11.32,0 42.54,-63.26 49.08,-75.51 5.12,-9.6 39.74,-74.77 47.2,-80.24l0 246.37 121.77 0 0 -453.09 0 -0.3c-0.06,-6.29 -2.07,-8.2 -8.5,-8.2l-110.44 0c-9.3,0 -16.82,16.53 -20.8,24.51 -6.3,12.61 -10.94,19.19 -17,31.14 -5.97,11.79 -10.01,19.34 -15.88,29.43 -6.05,10.43 -10.06,20.89 -16.57,31.58l-65.68 124.05c-10.54,-7.73 -59.87,-107.03 -68.51,-121.22 -6.25,-10.27 -9.52,-19.02 -15.53,-29.77l-42.05 -76.9c-4.17,-7.2 -4.3,-12.82 -12.67,-12.82l-118.94 0 0 461.59zm-150.08 65.14c4.85,6.99 -2.06,5.66 25.48,5.66l0 59.47 11.33 0 0 -59.47 22.66 0 0 -11.33c-23.16,0 -57.75,-4.41 -59.47,5.67zm-971.33 0c4.85,6.99 -2.06,5.66 25.48,5.66l0 59.47 11.33 0 0 -59.47 22.66 0 0 -11.33c-23.16,0 -57.75,-4.41 -59.47,5.67zm1296.99 2.83c0,75.65 -12.39,62.3 50.97,62.3l0 -11.33 -36.81 0 0 -59.47c-9.08,0.2 -14.16,-0.92 -14.16,8.5zm-1098.76 28.31c0,26.34 25.07,46.69 65.13,25.49 -11.8,-17.62 -3.6,-2.83 -31.15,-2.83 -29.51,0 -32.32,-48.14 5.66,-48.14 15.27,0 10.16,8.61 22.66,2.83 -6.56,-24.58 -62.3,-19.5 -62.3,22.65zm484.25 22.66c-11.94,0 -28.32,1.22 -28.32,-25.48 0,-16 10.3,-22.66 25.48,-22.66 17.12,0 19.81,18.46 25.49,-2.83 -80.73,-42.72 -83.1,85.07 -12.49,61.23 6.24,-2.1 16.01,-7.35 10.14,-13.23 -6.3,-6.31 -6.76,2.97 -20.3,2.97zm-186.91 -5.66c0,-11.25 2.83,-8.53 8.5,-17 7.93,5.32 17.03,12.22 19.82,22.66 -8.7,2.03 -28.32,8.45 -28.32,-5.66zm8.5 -45.31c8.92,0 14.08,-2.6 15.65,6.11 1.34,7.38 -5.53,9.18 -12.82,10.88 -8.43,-15.94 -2.53,-6 -2.83,-16.99zm-2.83 22.65c-43.27,28.97 11.54,54.04 28.31,31.15 13.84,9.27 5.09,9.67 13.13,6.91 6.89,-2.38 -1.84,-5.78 -3.27,-12.85 -2.35,-11.69 6.98,-4.7 -1.36,-19.55 -8.46,6.21 -3.31,8.1 -11.33,11.33l-11.85 -13.66c4.85,-6.4 12.9,-10.33 13.89,-18.03 2.29,-17.95 -28.11,-23.06 -34.46,-6.09 -3.63,9.72 2.71,14.48 6.94,20.79zm-399.3 -22.65c0,76 -12.97,62.3 53.81,62.3l0 -11.33 -39.65 0 0 -19.82 33.99 0 0 -8.5 -33.99 0 0 -19.82 36.82 0 0 -11.33c-33.58,0 -50.98,-4.8 -50.98,8.5zm1005.32 31.15l-19.83 0 0 -28.32 19.83 0c9.22,0 10.91,8.04 14.15,14.16 -3.24,6.12 -4.93,14.16 -14.15,14.16zm-31.16 31.15l11.33 0 0 -19.82c45.78,0 10.24,19.82 45.31,19.82 -2,-7.5 -9.78,-16.12 -14.16,-22.66 25.93,-17.36 15.49,-48.14 -16.99,-48.14l-25.49 0 0 70.8zm-767.43 0c16.72,-0.37 14.16,1.06 14.16,-31.15l33.98 0c0,32.21 -2.56,30.78 14.16,31.15l0 -70.8c-16.47,0.37 -14.16,-0.84 -14.16,28.32l-33.98 0c0,-29.16 2.31,-27.95 -14.16,-28.32l0 70.8zm903.36 -59.47c38.85,0 26.74,48.14 8.5,48.14 -52.34,0 -34.79,-48.14 -8.5,-48.14zm-36.81 22.66c0,35.1 41.17,49.19 63.22,29.24 22.26,-20.14 15.74,-63.23 -29.24,-63.23 -17.01,0 -33.98,16.97 -33.98,33.99zm-416.28 8.49c0,-47.18 48.14,-34.81 48.14,-8.49 0,39.74 -48.14,27.17 -48.14,8.49zm-14.16 -8.49c0,20.69 15.47,37.41 37.19,37.95 47.47,1.19 57.51,-71.94 -3.21,-71.94 -8.73,0 -18.68,5.62 -23.51,10.48 -4.26,4.3 -10.47,16.81 -10.47,23.51zm121.77 -25.49c0,62.94 -4.99,61.87 14.15,62.3l0 -45.31c9.61,6.43 23.05,26.23 31.32,36.65 5.19,6.53 4.81,8.39 16.83,8.66l0 -70.8 -11.33 0 0 48.14c-7.41,-4.96 -18.15,-20.74 -24.84,-28.97 -3.79,-4.67 -7.86,-11.46 -11.32,-14.65 -5.81,-5.37 -14.81,-8.4 -14.81,3.98zm-914.69 -178.41l-105.63 -117.26 -0.39 -9.76c-0.31,-4.1 -1.89,-10.45 -4.3,-14.62 -13.13,-22.65 -53.93,-17.12 -53.93,17.04 0,29.79 30.73,23.49 43.37,35.92l57.89 63.88c8.16,9.27 56.3,61.62 62.99,61.62 17.2,0 45.35,-41.26 58.72,-54.56l110.5 -116.04c5.94,-6.74 11.89,-11.93 18.39,-18.43l74.87 -78.05c12.25,-9.63 13.7,-0.48 27.07,-9.74 36.96,-25.58 -11.87,-77.25 -39.72,-42.55 -18.89,23.53 19.24,6.41 -40.99,66.63 -24.43,24.43 -44.82,47.67 -69.37,72.21l-103.37 109.02c-11.29,11.29 -23.66,26.36 -36.1,34.69zm-237.88 -133.09c0,67.65 12.96,121.56 57.26,172.11 44.04,50.24 102.81,88.42 174.95,88.42 63.45,0 107.65,-7.16 159.03,-44.87 70.96,-52.08 104.34,-120.19 104.34,-212.83 0,-26.57 -6.47,-44.29 -11.33,-65.13 -6.73,4.5 -18.02,18.56 -22.66,25.48 -0.64,2.5 31.25,115.12 -57.34,203.19 -143.35,142.53 -375.93,37.24 -375.93,-152.21 0,-206.06 251.43,-290.99 378.8,-152.26l31.82 44.65 20.48 -19.17c-7.29,-27.57 -55.53,-68.71 -78.77,-83.97 -37.65,-24.72 -79.23,-36.85 -120.61,-38.46l-18.8 0c-91.76,3.45 -179.45,57.54 -217.69,139.66 -11.04,23.7 -23.55,62.16 -23.55,95.39zm560.71 -79.3l0 201.07c0,61.08 23.75,121.76 90.62,121.76l317.17 0 0 -277.52 -203.9 0 0 82.13 113.28 0 0 104.77 -189.74 0c-42.06,0 -25.43,-66.12 -25.39,-93.35l-0.1 -124.7c-0.12,-28.16 1.22,-56.63 28.32,-56.63l277.53 0 0 -96.29c-62.47,0 -279.28,-5.34 -327.3,6.87 -38.1,9.68 -60.98,32.51 -72.4,69.19 -5.23,16.8 -8.09,39.83 -8.09,62.7zm671.15 229.38l-144.43 0 0 -90.62 138.76 0c49.86,0 42.48,27.8 42.48,62.31 0,18.39 -18.18,28.31 -36.81,28.31zm-2.83 -184.07l-141.6 0 0 -87.78 147.26 0c33.87,0 28.32,37.27 28.32,59.47 0,17.71 -15.7,28.31 -33.98,28.31zm-246.38 -175.57l0 453.09 288.85 0c141.31,0 131.74,-147.8 99.02,-200.96 -9.38,-15.25 -31.56,-37.9 -53.7,-39.74l0 -5.67c14.89,-3.47 29.83,-20.66 38.09,-32.7 27.02,-39.44 19.17,-128.47 -21.04,-157.1 -15.2,-10.81 -24.16,-14.75 -45.26,-19.86 -40.03,-9.71 -245.22,-5.56 -297.46,-5.56 -6.53,0 -8.5,1.97 -8.5,8.5z"/>
</svg>
